<!DOCTYPE svg PUBLIC "-//W3C//DTD SVG 1.1//EN" "http://www.w3.org/Graphics/SVG/1.1/DTD/svg11.dtd">
<!-- Uploaded to: SVG Repo, www.svgrepo.com, Transformed by: SVG Repo Mixer Tools -->
<svg width="800px" height="800px" viewBox="-21.12 -21.12 90.24 90.24" xmlns="http://www.w3.org/2000/svg" fill="#29B24E" stroke="#29B24E" stroke-width="0.00048000000000000007">
<g id="SVGRepo_bgCarrier" stroke-width="0" transform="translate(0,0), scale(1)">
<rect x="-21.12" y="-21.12" width="90.24" height="90.24" rx="45.12" fill="#FFFFFF" strokewidth="0"/>
</g>
<g id="SVGRepo_tracerCarrier" stroke-linecap="round" stroke-linejoin="round" stroke="#CCCCCC" stroke-width="0.096"/>
<g id="SVGRepo_iconCarrier"> <title>bookmark-multiple</title> <g id="Layer_2" data-name="Layer 2"> <g id="invisible_box" data-name="invisible box"> <rect width="48" height="48" fill="none"/> </g> <g id="icons_Q2" data-name="icons Q2"> <path d="M30,14V40l-7.6-5.8L20,32.4l-2.4,1.8L10,40V14H30M8,10a2,2,0,0,0-2,2V44a2,2,0,0,0,2,2,2.4,2.4,0,0,0,1.4-.5L20,37.4l10.6,8.1A2.4,2.4,0,0,0,32,46a2,2,0,0,0,2-2V12a2,2,0,0,0-2-2Z"/> <path d="M16,2a2,2,0,0,0-2,2V6H38V37l.6.5A2.4,2.4,0,0,0,40,38a2,2,0,0,0,2-2V4a2,2,0,0,0-2-2Z"/> </g> </g> </g>
</svg>